<svg xmlns="http://www.w3.org/2000/svg" viewBox="0 0 434.56 397.75"><defs><style>.cls-1{isolation:isolate;}.cls-2{fill:#d4e9fa;}.cls-27,.cls-3{fill:#fff;}.cls-4,.cls-42,.cls-5{fill:#6376bf;}.cls-10,.cls-12,.cls-16,.cls-25,.cls-26,.cls-29,.cls-32,.cls-34,.cls-36,.cls-39,.cls-41,.cls-42,.cls-5,.cls-8{opacity:0.5;}.cls-10,.cls-25,.cls-26,.cls-29,.cls-32,.cls-39,.cls-41,.cls-5,.cls-8{mix-blend-mode:multiply;}.cls-10,.cls-6{fill:#ffc68a;}.cls-18,.cls-7,.cls-8{fill:#f05956;}.cls-9{fill:#edaf6b;}.cls-11,.cls-34,.cls-39{fill:#143c4a;}.cls-12,.cls-16,.cls-18,.cls-21,.cls-23,.cls-34,.cls-36,.cls-42{mix-blend-mode:screen;}.cls-13{fill:#ffd5a8;}.cls-14{fill:#523329;}.cls-15,.cls-16{fill:#cf3f3c;}.cls-17{fill:#ba3836;}.cls-18{opacity:0.8;}.cls-19,.cls-21,.cls-25{fill:#b4cbdd;}.cls-20{fill:#fff0eb;}.cls-21,.cls-23{opacity:0.4;}.cls-22,.cls-23,.cls-26{fill:#a1bcd1;}.cls-24,.cls-29,.cls-36{fill:#fcc574;}.cls-27{font-size:10.32px;font-family:Montserrat-Bold, Montserrat Bold;font-weight:700;}.cls-28{letter-spacing:0em;}.cls-30{letter-spacing:0em;}.cls-31,.cls-32{fill:#ffb894;}.cls-33{fill:#f29272;}.cls-35{fill:#e28758;}.cls-37{fill:#0f3340;}.cls-38{fill:#c26144;}.cls-40,.cls-41{fill:#4759a1;}.cls-43{fill:#1b5063;}</style></defs><g class="cls-1"><g id="BACKGROUND"><path class="cls-2" d="M53.8,395H435.11q1.78-4.5,3.87-8.84c8.21-17.05,19.92-32.24,25.3-50.6,5.57-19,3.44-41-6.9-57.42-17.32-27.52-52.94-35.45-70-63.15-13.55-22-13.08-53-30.26-71.67-13.44-14.58-34.28-17.37-53-14.8s-36.8,9.64-55.59,11.64A106,106,0,0,1,191.12,130c-10-4.85-19.53-11.33-30.19-14.09-16.91-4.37-35.41,1.52-48.51,14.06s-20.87,31.18-22.36,50.21c-1.31,16.69,1.92,33.36,2.73,50.09s-1.27,34.78-11.33,47.35c-9.79,12.23-25.35,17.08-35.85,28.58-15.61,17.1-16.27,46.08-6.12,67.59A86.54,86.54,0,0,0,53.8,395Z" transform="translate(-32.72)"/></g><g id="OBJECTS"><path class="cls-3" d="M102.75,348.29a9.07,9.07,0,0,0-2.19-3.48c-.81-.77-1.78-1.36-2.57-2.15-2.24-2.26-2.64-5.8-2.09-8.93s1.87-6.07,2.62-9.16.84-6.57-.92-9.22c-1.43-2.16-3.92-3.48-5.24-5.72-2.17-3.66-.57-8.5-2.11-12.46a7.94,7.94,0,0,0-1-1.86,5.36,5.36,0,0,0-1.94-1.93,6.35,6.35,0,0,0-5.43,0,5.47,5.47,0,0,0-2,1.93,7.91,7.91,0,0,0-1,1.86c-1.55,4,0,8.8-2.11,12.46-1.33,2.24-3.81,3.56-5.25,5.72-1.76,2.65-1.67,6.13-.92,9.22s2.08,6,2.63,9.16.15,6.67-2.1,8.93c-.79.79-1.76,1.38-2.57,2.15a9.07,9.07,0,0,0-2.19,3.48,12.93,12.93,0,0,0,1.38,11.06c3.16,5,8.8,6.4,13.51,9.46.3.19.61.38.94.55a3.18,3.18,0,0,0,.89.58,5.65,5.65,0,0,0,3,0,3,3,0,0,0,.89-.58c.33-.17.64-.36.94-.55,4.71-3.06,10.35-4.42,13.51-9.46A12.86,12.86,0,0,0,102.75,348.29Z" transform="translate(-32.72)"/><path class="cls-4" d="M96.36,392.79a9.42,9.42,0,0,1-2.2,2.21H74.92c-7.5-5.21-6.67-24.22-6.32-29.09a1.22,1.22,0,0,1,1.22-1.13H99.26a1.22,1.22,0,0,1,1.23,1.13C100.79,370.24,101.48,385.74,96.36,392.79Z" transform="translate(-32.72)"/><path class="cls-5" d="M96.36,392.79a9.42,9.42,0,0,1-2.2,2.21H74.92c-7.5-5.21-6.67-24.22-6.32-29.09a1.22,1.22,0,0,1,1.22-1.13h1C74.71,372.71,85,391.2,96.36,392.79Z" transform="translate(-32.72)"/><path class="cls-6" d="M424.87,204.53a4.25,4.25,0,0,0-3.6-4.13c-4.93-.86-17.91-3.15-18.6-3.26s.61-17.63.68-18.69a4.62,4.62,0,0,0,1.56-3.23,1,1,0,0,0-.05-.45.37.37,0,0,0-.37-.22.58.58,0,0,0-.33.25,3.77,3.77,0,0,1-1.15.95,6.79,6.79,0,0,1,.26-3.42c.06-.29,0-.69-.24-.77s-.46.19-.58.42a5.91,5.91,0,0,0-.57,1.8c.08-.76.15-1.51.23-2.27,0-.23,0-.53-.23-.59s-.34.1-.45.25a4.59,4.59,0,0,0-.94,2.71v-2.42a.46.46,0,0,0-.06-.28.3.3,0,0,0-.37,0,.85.85,0,0,0-.24.32,8.4,8.4,0,0,0-.81,2.59L398.8,173c0-.21-.14-.48-.36-.48s-.31.24-.36.44a6,6,0,0,0,.24,3.07,13.37,13.37,0,0,0,.87,2c-1.08,4.14-5.86,23.17-2.72,24.92,3.53,2,23.3,7.3,24.55,7.17C421.9,210,424.81,207.51,424.87,204.53Z" transform="translate(-32.72)"/><path class="cls-7" d="M397.59,181.44l6,1.58s-.75,13.55-.51,13.62,20.34,2.63,21.38,5.29.82,7.15-3.28,8.54-25.35-5.69-25.93-8.52C394.16,196.89,397.59,181.44,397.59,181.44Z" transform="translate(-32.72)"/><path class="cls-8" d="M403,196.64s-2.76-.13-2.67.65S403,196.64,403,196.64Z" transform="translate(-32.72)"/><path class="cls-8" d="M403,196.64s-.8,1.07-.52,1.74S403,196.64,403,196.64Z" transform="translate(-32.72)"/><polygon class="cls-6" points="392.77 191.73 390.76 200.76 384.33 200.04 384.97 197.11 385.42 195.06 386.45 190.32 392.77 191.73"/><path class="cls-9" d="M423.2,194.56s-2.58,3.35-5.51,2.55l.45-2.05C418.43,195.12,421.56,195.71,423.2,194.56Z" transform="translate(-32.72)"/><path class="cls-7" d="M423.73,230.06l-14.79.3a51,51,0,0,0,.89-9.81,30.25,30.25,0,0,0-.39-3.63c-.21-1.31-.46-2.58-.65-3.74h0a16.09,16.09,0,0,1-.31-3.44c.4-4.85,8.58-9.7,8.58-9.7l6.43.72a14.19,14.19,0,0,1,2.59,5C426.93,209.2,423.73,230.06,423.73,230.06Z" transform="translate(-32.72)"/><path class="cls-6" d="M424,204.89a4.24,4.24,0,0,0-4.61-2.94c-5,.57-18.08,2.06-18.77,2.15S396.19,187,396,186a4.65,4.65,0,0,0,.58-3.54.93.93,0,0,0-.18-.42.38.38,0,0,0-.42-.11c-.13.06-.18.21-.24.34a3.66,3.66,0,0,1-.83,1.23,6.89,6.89,0,0,1-.73-3.35c0-.3-.15-.68-.45-.67s-.38.32-.43.57a5.65,5.65,0,0,0,0,1.88c-.15-.74-.29-1.49-.43-2.23,0-.23-.15-.52-.38-.51s-.3.2-.37.37a4.62,4.62,0,0,0-.13,2.87c-.23-.78-.46-1.55-.68-2.32a.38.38,0,0,0-.15-.25.27.27,0,0,0-.35.08.7.7,0,0,0-.14.37,8.56,8.56,0,0,0-.05,2.72l-.5-1c-.1-.19-.28-.42-.49-.36s-.23.32-.22.52a6.06,6.06,0,0,0,1.1,2.88,14.29,14.29,0,0,0,1.41,1.7c.14,4.27.95,23.88,4.46,24.66,3.94.89,24.42.4,25.58-.08C422.71,211,424.78,207.77,424,204.89Z" transform="translate(-32.72)"/><path class="cls-7" d="M391.29,190.49l6.15-.17s3.12,13.21,3.37,13.21,20.25-3.25,22-1,2.82,6.62-.72,9.12-25.92,1.73-27.28-.81C392.38,206.28,391.29,190.49,391.29,190.49Z" transform="translate(-32.72)"/><path class="cls-8" d="M400.81,203.53s-2.68.65-2.37,1.37S400.81,203.53,400.81,203.53Z" transform="translate(-32.72)"/><path class="cls-8" d="M400.81,203.53s-.47,1.25,0,1.81S400.81,203.53,400.81,203.53Z" transform="translate(-32.72)"/><path class="cls-8" d="M419.74,212.49c-.38.26-6.48,4.35-10.3,4.43-.21-1.31-.46-2.58-.65-3.74C408.79,213.18,416.61,213.23,419.74,212.49Z" transform="translate(-32.72)"/><path class="cls-6" d="M418.09,279.48c0,1.32-.11,2.67-.18,4-.64,13.27-2.06,27.37-2.06,27.37l-6.14-.85-.84-.12-.55-30.42Z" transform="translate(-32.72)"/><path class="cls-10" d="M418.09,279.48c0,1.32-.11,2.67-.18,4a26.85,26.85,0,0,1-7.49.23L409.71,310l-.84-.12-.55-30.42Z" transform="translate(-32.72)"/><path class="cls-11" d="M417.59,313.15a16.2,16.2,0,0,0-.37-2.3,2.39,2.39,0,0,0-.12-.46,2,2,0,0,0-.42-.57,1.29,1.29,0,0,0-1.5-.2,2.61,2.61,0,0,1-1.85.33,4.65,4.65,0,0,1-1.65-.82,9,9,0,0,0-1.57-1,2.24,2.24,0,0,0-1.81-.07,1.3,1.3,0,0,0-.76,1.51,17.87,17.87,0,0,0-6.11,1.71,3.23,3.23,0,0,0-1,.7,1.32,1.32,0,0,0-.36,1.15Z" transform="translate(-32.72)"/><path class="cls-6" d="M426.58,279.48c-.06,1.68-.14,3.39-.23,5.11-.67,13-2,26.28-2,26.28l-6-.83-1-.14-.55-30.42Z" transform="translate(-32.72)"/><path class="cls-10" d="M426.58,279.48c-.06,1.68-.14,3.39-.23,5.11a40,40,0,0,1-8,.16V310l-1-.14-.55-30.42Z" transform="translate(-32.72)"/><path class="cls-11" d="M426.08,313.15a16.2,16.2,0,0,0-.37-2.3,2.39,2.39,0,0,0-.12-.46,2,2,0,0,0-.42-.57,1.29,1.29,0,0,0-1.5-.2,2.61,2.61,0,0,1-1.85.33,4.65,4.65,0,0,1-1.65-.82,8.7,8.7,0,0,0-1.58-1,2.22,2.22,0,0,0-1.8-.07,1.3,1.3,0,0,0-.76,1.51,17.87,17.87,0,0,0-6.11,1.71,3.23,3.23,0,0,0-1,.7,1.32,1.32,0,0,0-.36,1.15Z" transform="translate(-32.72)"/><path class="cls-11" d="M431.88,282.4a23,23,0,0,1-7.15.93h-1c-7.78.08-17.61-.94-17.61-.94s-1.37-33.87-1.24-39.25,4.06-12.79,4.06-12.79l12.28-.24,1.06,0,1.53,0c3.06,1.18,6.44,7.2,7.19,11.7S431.88,282.4,431.88,282.4Z" transform="translate(-32.72)"/><g class="cls-12"><path class="cls-11" d="M424.73,283.33h-1c-.06-6.77-.39-35.82-.61-42.17a42.78,42.78,0,0,0-1.9-11l1.06,0a44,44,0,0,1,1.84,11C424.34,247.49,424.67,276.56,424.73,283.33Z" transform="translate(-32.72)"/></g><path class="cls-6" d="M429.19,188.29a1.15,1.15,0,0,0-.44-.32c0-.85,0-1.69,0-2.47a2.67,2.67,0,0,0-1.35-2.27c-2-1.07-5.89-2.77-9.09-1.35a2.79,2.79,0,0,0-1.5,1.75,37.24,37.24,0,0,0-1.22,4.41c-.18.89-.33,1.76-.43,2.55a5.68,5.68,0,0,0,.14,2.93c1.17,2.16,7.95,2.53,11.32-.4a5.85,5.85,0,0,0,1.27-1.55C429.11,190.84,429.83,189,429.19,188.29Z" transform="translate(-32.72)"/><path class="cls-13" d="M423.39,191.12a1.33,1.33,0,1,1-1-1.58A1.32,1.32,0,0,1,423.39,191.12Z" transform="translate(-32.72)"/><path class="cls-13" d="M416.33,189.55a1.32,1.32,0,0,1-1.22,1c.1-.78.25-1.65.44-2.54A1.32,1.32,0,0,1,416.33,189.55Z" transform="translate(-32.72)"/><path class="cls-9" d="M418.93,186.51a1.73,1.73,0,0,1-.07,1.12,3.41,3.41,0,0,1-.57,1,3.28,3.28,0,0,0-.33.4.5.5,0,0,0-.06.4,1,1,0,0,0,.7.65,1,1,0,0,1-1-.56.77.77,0,0,1,0-.66,3.18,3.18,0,0,1,.34-.47,5.15,5.15,0,0,0,.61-.86A2.74,2.74,0,0,0,418.93,186.51Z" transform="translate(-32.72)"/><path class="cls-14" d="M420.35,186.16a.91.91,0,0,1,.53-.11,1.49,1.49,0,0,1,.53.17,1.09,1.09,0,0,1,.41.36,1.28,1.28,0,0,1,.21.48.11.11,0,0,1-.08.13.11.11,0,0,1-.11,0h0a1.46,1.46,0,0,0-.28-.32,1.12,1.12,0,0,0-.33-.2c-.25-.1-.52-.05-.79-.14h0a.18.18,0,0,1-.12-.21A.16.16,0,0,1,420.35,186.16Z" transform="translate(-32.72)"/><path class="cls-14" d="M418.2,186a6.37,6.37,0,0,0-.77-.21,1,1,0,0,0-.39,0,2.2,2.2,0,0,0-.39.17h0a.1.1,0,0,1-.14,0,.11.11,0,0,1,0-.12,1.21,1.21,0,0,1,.39-.35,1.08,1.08,0,0,1,.53-.15,1.64,1.64,0,0,1,.54.07.85.85,0,0,1,.44.33.17.17,0,0,1-.05.23.13.13,0,0,1-.12,0Z" transform="translate(-32.72)"/><path class="cls-9" d="M418,191.11a3,3,0,0,0,1.25.07,1.36,1.36,0,0,0,.52-.24,6.31,6.31,0,0,0,.48-.45,1.21,1.21,0,0,1-.28.66,1.14,1.14,0,0,1-.64.4,1.42,1.42,0,0,1-.74-.05A1.33,1.33,0,0,1,418,191.11Z" transform="translate(-32.72)"/><path class="cls-14" d="M420.68,188.37c-.09.41-.37.7-.61.64s-.37-.43-.28-.84.36-.71.61-.65S420.77,188,420.68,188.37Z" transform="translate(-32.72)"/><path class="cls-14" d="M417.51,187.66c-.09.41-.36.7-.61.65s-.37-.44-.28-.85.37-.7.62-.65S417.61,187.25,417.51,187.66Z" transform="translate(-32.72)"/><path class="cls-9" d="M428.17,189.82a.52.52,0,0,0-.36-.36.75.75,0,0,0-.49,0,2.94,2.94,0,0,0-.9.56.16.16,0,0,1-.22,0,.17.17,0,0,1,0-.21.89.89,0,0,1,.72-.26,1,1,0,0,1,.37.08.55.55,0,0,1,.3.3.6.6,0,0,1-.23.71.93.93,0,0,1-.66.13,1.08,1.08,0,0,0,.56-.26.41.41,0,0,0,.09-.47c-.06-.13-.24-.18-.44-.18a.6.6,0,0,0-.47.16l-.22-.22a2.32,2.32,0,0,1,1-.55.81.81,0,0,1,.61.08A.54.54,0,0,1,428.17,189.82Z" transform="translate(-32.72)"/><path class="cls-14" d="M434.94,205.31c-.66-1.5-1.48-2.92-2.09-4.44a9.3,9.3,0,0,1-.75-4.78c.16-1,.57-2,.73-3a6.33,6.33,0,0,0-.56-3.71c-.72-1.48-2-2.75-2.12-4.39a5.91,5.91,0,0,0-4.88-5,9.52,9.52,0,0,0-5.65.28,7.12,7.12,0,0,0-4.39,5.28,24.53,24.53,0,0,0-.22,6.64c-.11-1.62,1.35-7.35,1.35-7.35,1.07.28,4.2-1.25,5.67-1.12a2.26,2.26,0,0,1,2.14,2.31,8.34,8.34,0,0,0,.23,2.2,2.13,2.13,0,0,0,0,1.47c.16.42.4.69.46,1a.62.62,0,0,1-.29.7h0a.18.18,0,0,0-.08.22.19.19,0,0,0,.24.11,1.1,1.1,0,0,0,.65-1.11,10.82,10.82,0,0,0-.33-1.06.83.83,0,0,1,0-.22,10.64,10.64,0,0,1,2.51-1.27,1.27,1.27,0,0,1,1.61,1.49v0a13.61,13.61,0,0,1-4.26,4.72l-1.39,6.54c3.27,6,2.33,13.21,2.33,13.21l3.11-.66a14.51,14.51,0,0,0,4.14-1.32,4.86,4.86,0,0,0,2.56-3.34A6.21,6.21,0,0,0,434.94,205.31Z" transform="translate(-32.72)"/><polygon class="cls-15" points="385.75 327.81 385.35 323.91 366.75 323.91 367.16 327.81 385.75 327.81"/><polygon class="cls-15" points="381.7 343.6 381.3 339.7 362.7 339.7 363.11 343.6 381.7 343.6"/><polygon class="cls-15" points="377.65 359.38 377.25 355.49 358.65 355.49 359.05 359.38 377.65 359.38"/><polygon class="cls-15" points="373.6 375.17 373.19 371.27 354.6 371.27 355 375.17 373.6 375.17"/><polygon class="cls-15" points="366.39 394.78 371.47 394.78 389.86 313.07 384.77 313.07 366.39 394.78"/><polygon class="cls-15" points="349.07 394.78 354.15 394.78 372.54 313.07 367.45 313.07 349.07 394.78"/><polygon class="cls-16" points="369.02 313.08 350.63 394.78 349.07 394.78 367.46 313.08 369.02 313.08"/><rect class="cls-17" x="348.73" y="393.73" width="6.25" height="1.05"/><rect class="cls-17" x="365.9" y="393.73" width="6.25" height="1.05"/><rect class="cls-7" x="415.17" y="316.56" width="3.9" height="18.6" transform="translate(710.26 -91.25) rotate(90)"/><polygon class="cls-18" points="390.67 324.91 378.44 324.91 378.11 323.91 390.34 323.91 390.67 324.91"/><rect class="cls-7" x="420.86" y="332.35" width="3.9" height="18.6" transform="translate(731.74 -81.16) rotate(90)"/><polygon class="cls-18" points="395.92 340.7 383.69 340.7 383.36 339.7 395.59 339.7 395.92 340.7"/><rect class="cls-7" x="426.55" y="348.14" width="3.9" height="18.6" transform="translate(753.21 -71.06) rotate(90)"/><polygon class="cls-18" points="401.08 356.49 388.86 356.49 388.52 355.49 400.75 355.49 401.08 356.49"/><rect class="cls-7" x="432.24" y="363.92" width="3.9" height="18.6" transform="translate(774.69 -60.97) rotate(90)"/><polygon class="cls-18" points="406.25 372.27 394.02 372.27 393.69 371.27 405.92 371.27 406.25 372.27"/><polygon class="cls-7" points="401.42 394.78 396.34 394.78 369.46 313.07 374.54 313.07 401.42 394.78"/><rect class="cls-17" x="395.61" y="393.73" width="6.25" height="1.05"/><polygon class="cls-7" points="418.74 394.78 413.66 394.78 386.78 313.07 391.87 313.07 418.74 394.78"/><rect class="cls-17" x="412.91" y="393.73" width="6.25" height="1.05"/><rect class="cls-7" x="410.73" y="299.2" width="3.9" height="31.63" rx="0.5" transform="translate(694.98 -97.67) rotate(90)"/><path class="cls-18" d="M428.5,313.56v1.95a.5.5,0,0,0-.5-.5H397.37a.5.5,0,0,0-.5.5v-1.95a.5.5,0,0,1,.5-.5H428A.5.5,0,0,1,428.5,313.56Z" transform="translate(-32.72)"/><rect class="cls-19" x="78.13" width="2.44" height="156.96"/><path class="cls-19" d="M382.23,179.76l-2.43-.2,2-24.05a6.36,6.36,0,0,1,4.93-5.71,6.14,6.14,0,0,1,6.76,2.76l.07.11c1.8,3,2.42,6.4,3,9.71.12.67.25,1.34.38,2,1.15,5.82,3,9.75,5.82,12.36l-1.65,1.79c-3.22-3-5.31-7.32-6.56-13.68-.14-.68-.26-1.36-.39-2.05-.58-3.23-1.14-6.28-2.71-8.88l-.05-.09a3.71,3.71,0,0,0-4.12-1.66,3.93,3.93,0,0,0-3.07,3.53Z" transform="translate(-32.72)"/><rect class="cls-19" x="350.92" width="2.44" height="84.61"/><path class="cls-3" d="M364.73,305.38,105.57,283.8A7.15,7.15,0,0,1,99,276.07L110.9,133.41a4.8,4.8,0,0,1,5.18-4.39L380,151a4.8,4.8,0,0,1,4.38,5.18L372.47,298.83A7.16,7.16,0,0,1,364.73,305.38Z" transform="translate(-32.72)"/><path class="cls-19" d="M383.91,161.35,110.47,138.59l.43-5.18a4.8,4.8,0,0,1,5.18-4.39L380,151a4.8,4.8,0,0,1,4.38,5.18Z" transform="translate(-32.72)"/><path class="cls-20" d="M354.33,153.87a2.49,2.49,0,1,1-2.28-2.68A2.5,2.5,0,0,1,354.33,153.87Z" transform="translate(-32.72)"/><path class="cls-20" d="M365,154.76a2.49,2.49,0,1,1-2.28-2.69A2.49,2.49,0,0,1,365,154.76Z" transform="translate(-32.72)"/><path class="cls-20" d="M375.59,155.64a2.49,2.49,0,1,1-2.27-2.68A2.49,2.49,0,0,1,375.59,155.64Z" transform="translate(-32.72)"/><path class="cls-7" d="M235.79,185.33l-2.67-.22-.28,3.43-3.69-.3.28-3.44-8.8-.73.21-2.54,8.57-9.73,4,.33-8,9.24,4.39.36.25-3.06,3.57.3-.25,3.06,2.66.22Z" transform="translate(-32.72)"/><path class="cls-7" d="M237.31,180.69c.45-5.4,3.69-8.21,7.71-7.87s6.75,3.64,6.3,9-3.67,8.21-7.71,7.87S236.86,186.08,237.31,180.69Zm10.2.85c.31-3.72-.87-5.37-2.76-5.52s-3.3,1.27-3.61,5,.87,5.36,2.74,5.51S247.2,185.25,247.51,181.54Z" transform="translate(-32.72)"/><path class="cls-7" d="M267.75,188l-2.67-.22-.28,3.43-3.69-.3.29-3.44-8.81-.73.21-2.54,8.57-9.73,4,.33-8,9.24,4.39.36.25-3.06,3.58.3-.26,3.06,2.66.22Z" transform="translate(-32.72)"/><rect class="cls-19" x="202.53" y="197.13" width="44.77" height="44.56" transform="matrix(1, 0.08, -0.08, 1, -13.74, -17.9)"/><path class="cls-21" d="M249.07,199.07l-3.7,44.41-44.61-3.72.22-2.67,23.61,2a19.19,19.19,0,0,0,20.71-17.53l1.88-22.61Z" transform="translate(-32.72)"/><rect class="cls-22" x="247.16" y="200.37" width="33.33" height="44.56" transform="translate(-13.34 -21.12) rotate(4.76)"/><path class="cls-23" d="M278.85,243.09l-.26,3.15-33.22-2.76,3.7-44.41,2.56.21-1.52,18.22a23.11,23.11,0,0,0,21.11,24.95Z" transform="translate(-32.72)"/><rect class="cls-7" x="248.39" y="228.76" width="10.16" height="8.89" transform="translate(-12.5 -20.22) rotate(4.76)"/><rect class="cls-24" x="268" y="229.21" width="9.22" height="2.08" transform="translate(-12.68 -21.82) rotate(4.76)"/><rect class="cls-24" x="265.68" y="232.61" width="11.25" height="2.08" transform="translate(-12.4 -21.7) rotate(4.76)"/><polygon class="cls-19" points="251.51 221.19 218.29 218.42 216.35 199.07 249.56 201.83 251.51 221.19"/><polygon class="cls-19" points="210.78 217.8 166.17 214.08 171.34 195.32 215.95 199.03 210.78 217.8"/><path class="cls-21" d="M244,215.87l-.53,1.93-44.61-3.72,5.17-18.76,1.82.15h0a14.49,14.49,0,0,0,12.77,18.29Z" transform="translate(-32.72)"/><polygon class="cls-25" points="216.35 199.07 214.84 217.21 214.15 219.71 170.02 216.04 170.15 214.41 210.78 217.8 215.95 199.04 216.35 199.07"/><polygon class="cls-19" points="251.51 221.19 218.29 218.42 216.35 199.07 249.56 201.83 251.51 221.19"/><polygon class="cls-26" points="247.98 220.9 247.85 222.46 215.71 219.79 215.12 213.87 216.35 199.07 218.29 218.42 247.98 220.9"/><path class="cls-21" d="M284.23,221.19,251,218.42l-.23-2.28,13.52,1.13a14.29,14.29,0,0,0,15.4-15.66h0l2.59.22Z" transform="translate(-32.72)"/><polygon class="cls-24" points="346.62 262.95 226.61 266.42 180.39 267.75 64.34 271.1 64.23 267.44 63.95 257.61 114.65 256.15 114.66 256.15 177.88 254.32 212.46 253.32 224.07 252.99 346.23 249.47 346.57 261.07 346.62 262.95"/><text class="cls-27" transform="translate(67.15 268.01) rotate(-1.65)">ER<tspan class="cls-28" x="10.63" y="0">R</tspan><tspan x="16.21" y="0">OR</tspan></text><text class="cls-27" transform="translate(114.84 266.64) rotate(-1.65)">ER<tspan class="cls-28" x="10.63" y="0">R</tspan><tspan x="16.21" y="0">OR</tspan></text><text class="cls-27" transform="translate(162.52 265.26) rotate(-1.65)">ER<tspan class="cls-28" x="10.63" y="0">R</tspan><tspan x="16.21" y="0">OR</tspan></text><text class="cls-27" transform="translate(210.21 263.89) rotate(-1.65)">ER<tspan class="cls-28" x="10.63" y="0">R</tspan><tspan x="16.21" y="0">OR</tspan></text><text class="cls-27" transform="translate(257.9 262.51) rotate(-1.65)">ER<tspan class="cls-28" x="10.63" y="0">R</tspan><tspan x="16.21" y="0">OR</tspan></text><text class="cls-27" transform="translate(305.59 261.13) rotate(-1.65)">ER<tspan class="cls-28" x="10.63" y="0">R</tspan><tspan x="16.21" y="0">OR</tspan></text><path class="cls-29" d="M245.5,266.66l-32.39,1.09-116,3.35L97,267.44c22.12-.89,96.67-.06,99.38-.78,2.47-.65-33.12-7.52-49-10.51l63.22-1.83C215.24,257.55,245.5,266.66,245.5,266.66Z" transform="translate(-32.72)"/><path class="cls-29" d="M379.34,263l-120,3.47-14.15-13.1,11.61-.33,36,4.51,32.63,5.41a54.91,54.91,0,0,0,12.15.64l41.68-2.48Z" transform="translate(-32.72)"/><polygon class="cls-24" points="346.19 271.72 344.9 281.64 344.45 285.1 64.39 248.85 66.12 235.47 74.26 236.52 346.19 271.72"/><path class="cls-29" d="M377.62,281.64l-.45,3.46L97.11,248.85l1.73-13.38,8.14,1.05c.35,3.92,1.54,8.46,5.09,9.75C118,248.42,333,276,377.62,281.64Z" transform="translate(-32.72)"/><text class="cls-27" transform="matrix(0.99, 0.13, -0.13, 0.99, 67.69, 246.31)">ER<tspan class="cls-30" x="10.63" y="0">R</tspan><tspan x="16.21" y="0">OR</tspan></text><text class="cls-27" transform="matrix(0.99, 0.13, -0.13, 0.99, 115, 252.43)">ER<tspan class="cls-30" x="10.63" y="0">R</tspan><tspan x="16.21" y="0">OR</tspan></text><text class="cls-27" transform="matrix(0.99, 0.13, -0.13, 0.99, 162.32, 258.56)">ER<tspan class="cls-30" x="10.63" y="0">R</tspan><tspan x="16.21" y="0">OR</tspan></text><text class="cls-27" transform="matrix(0.99, 0.13, -0.13, 0.99, 209.63, 264.68)">ER<tspan class="cls-30" x="10.63" y="0">R</tspan><tspan x="16.21" y="0">OR</tspan></text><text class="cls-27" transform="matrix(0.99, 0.13, -0.13, 0.99, 256.95, 270.8)">ER<tspan class="cls-30" x="10.63" y="0">R</tspan><tspan x="16.21" y="0">OR</tspan></text><text class="cls-27" transform="matrix(0.99, 0.13, -0.13, 0.99, 304.26, 276.93)">ER<tspan class="cls-30" x="10.63" y="0">R</tspan><tspan x="16.21" y="0">OR</tspan></text><path class="cls-2" d="M77.89,168.9v-5.05H74.33a10.67,10.67,0,0,0-1.28-3.07l2.52-2.52L72,154.69l-2.52,2.52a10.67,10.67,0,0,0-3.07-1.28v-3.55h-5v3.55a10.67,10.67,0,0,0-3.07,1.28l-2.52-2.52-3.57,3.57,2.52,2.52a11,11,0,0,0-1.28,3.07H49.89v5.05h3.55A11,11,0,0,0,54.72,172l-2.52,2.52,3.57,3.57,2.52-2.52a10.67,10.67,0,0,0,3.07,1.28v3.56h5v-3.56a10.67,10.67,0,0,0,3.07-1.28L72,178.06l3.57-3.57L73.05,172a10.67,10.67,0,0,0,1.28-3.07Zm-14,1.1a3.63,3.63,0,1,1,3.62-3.62A3.62,3.62,0,0,1,63.89,170Z" transform="translate(-32.72)"/><path class="cls-2" d="M86.76,148.36v-3.47H84.31a7.28,7.28,0,0,0-.87-2.11L85.17,141l-2.45-2.45L81,140.32a7.28,7.28,0,0,0-2.11-.87V137H75.4v2.45a7.28,7.28,0,0,0-2.11.87l-1.73-1.73L69.1,141l1.74,1.74a7,7,0,0,0-.88,2.11H67.51v3.47H70a7,7,0,0,0,.88,2.11l-1.74,1.74,2.46,2.45,1.73-1.73a7.28,7.28,0,0,0,2.11.87v2.45h3.47V153.8a7.28,7.28,0,0,0,2.11-.87l1.74,1.73,2.45-2.45-1.73-1.74a7.28,7.28,0,0,0,.87-2.11Zm-9.62.76a2.5,2.5,0,1,1,2.49-2.49A2.5,2.5,0,0,1,77.14,149.12Z" transform="translate(-32.72)"/><path class="cls-2" d="M413,120.22v-3.46h-2.44a7.78,7.78,0,0,0-.88-2.12l1.73-1.73-2.45-2.45-1.73,1.73a7.2,7.2,0,0,0-2.12-.88v-2.45h-3.47v2.45a7.26,7.26,0,0,0-2.11.88l-1.73-1.73-2.45,2.45,1.73,1.73a7.2,7.2,0,0,0-.88,2.12H393.7v3.46h2.45a7.2,7.2,0,0,0,.88,2.12l-1.73,1.73,2.45,2.45,1.73-1.73a7.85,7.85,0,0,0,2.11.88v2.44h3.47v-2.44a7.78,7.78,0,0,0,2.12-.88l1.73,1.73,2.45-2.45-1.73-1.73a7.78,7.78,0,0,0,.88-2.12Zm-9.62.76a2.49,2.49,0,1,1,2.49-2.49A2.49,2.49,0,0,1,403.33,121Z" transform="translate(-32.72)"/><path class="cls-2" d="M429.89,129.85v-3.47h-2.44a7.2,7.2,0,0,0-.88-2.12l1.73-1.73-2.45-2.45-1.73,1.73a7.46,7.46,0,0,0-2.12-.87v-2.45h-3.46v2.45a7.46,7.46,0,0,0-2.12.87l-1.73-1.73-2.45,2.45,1.73,1.73a7.2,7.2,0,0,0-.88,2.12h-2.45v3.47h2.45A7.15,7.15,0,0,0,414,132l-1.73,1.73,2.45,2.45,1.73-1.73a7.2,7.2,0,0,0,2.12.88v2.45H422v-2.45a7.2,7.2,0,0,0,2.12-.88l1.73,1.73,2.45-2.45L426.57,132a7.15,7.15,0,0,0,.88-2.11Zm-9.62.76a2.5,2.5,0,1,1,2.49-2.5A2.49,2.49,0,0,1,420.27,130.61Z" transform="translate(-32.72)"/><path class="cls-31" d="M319.65,322.57l-4.11,21.24a89.33,89.33,0,0,0-1.32,9c-1.36,14.59-6.08,39.06-6.08,39.06l-1-.11-4.91-.53,1.89-36.1.65-12.64,1-19.55,11.95-8.49S319.5,317.22,319.65,322.57Z" transform="translate(-32.72)"/><path class="cls-32" d="M315.54,343.81a89.33,89.33,0,0,0-1.32,9c-1.36,14.59-6.08,39.06-6.08,39.06l-1-.11,5-35.22-8.05-1.41.65-12.64c4.78.47,10.75,1.19,10.75,1.19S315.53,343.72,315.54,343.81Z" transform="translate(-32.72)"/><path class="cls-4" d="M307.71,394.74c.66.09,1.51-.73,1.63-1.4a5.65,5.65,0,0,0,.08-1.54,1.14,1.14,0,0,0-.21-.7,1.27,1.27,0,0,0-.81-.39c-1.93-.31-4,.56-5.78-.15a3.3,3.3,0,0,0,.18-2.23,1.32,1.32,0,0,0-.45-.75c-.56-.4-1.3,0-1.89.37a12.08,12.08,0,0,1-7.4,1.72,9.46,9.46,0,0,0-1.76-.11,2.17,2.17,0,0,0-1.54.73,1.23,1.23,0,0,0,.05,1.6Z" transform="translate(-32.72)"/><path class="cls-7" d="M308.94,311.9s-3.87,6.77-4.23,10.72-2.17,30.23-2.17,30.23l12.39,1.33,6.82-43.45Z" transform="translate(-32.72)"/><polygon class="cls-8" points="276.16 353.52 285.74 331.65 282.2 354.18 276.16 353.52"/><path class="cls-31" d="M358.39,378.17,357.13,380,355,383l-25.47-15.82a8.14,8.14,0,0,1-3.63-5.12l-1.81-6-1.38-4.57-2.43-12.84-1.52-8v0L317.67,325l2-2.43h0l7.27-8.94s3.06,4.06,3.22,15.43a1.55,1.55,0,0,1,0,.22c.05,3.45,1.94,13,3.59,22.26.44,2.46.86,5.23,1.27,8.13C346.13,368,358.39,378.17,358.39,378.17Z" transform="translate(-32.72)"/><path class="cls-32" d="M358.39,378.17,357.13,380c-6.17-4.44-23.21-16.75-24.23-17.79-1.25-1.26-.62-6.8-.62-6.8l-8.21.75-1.38-4.57-2.43-12.84,9.88-9.65a1.55,1.55,0,0,1,0,.22c.05,3.45,1.94,13,3.59,22.26.44,2.46.86,5.23,1.27,8.13C346.13,368,358.39,378.17,358.39,378.17Z" transform="translate(-32.72)"/><path class="cls-4" d="M360.66,380.06a1.85,1.85,0,0,0-.3-2.13,6.5,6.5,0,0,0-1.25-.9,1.33,1.33,0,0,0-.72-.2,1.28,1.28,0,0,0-.76.48c-1.3,1.46-1.66,3.63-3.24,4.78a3.25,3.25,0,0,0-1.78-1.35,1.3,1.3,0,0,0-.87,0c-.64.25-.69,1.1-.71,1.79a12,12,0,0,1-2.54,7.16,9.51,9.51,0,0,0-1,1.42,2.17,2.17,0,0,0-.22,1.7,1.23,1.23,0,0,0,1.38.82Z" transform="translate(-32.72)"/><path class="cls-7" d="M334.8,352.69l-2.79.45-1,.17-8.5,1.4s-5.28-25.81-6-29.71.92-13.88.92-13.88l11.13-1Z" transform="translate(-32.72)"/><g class="cls-12"><polygon class="cls-7" points="299.29 353.14 298.3 353.31 292.54 310.41 293.53 310.32 299.29 353.14"/></g><path class="cls-31" d="M296.31,303.89l-22.54-6.8a4.7,4.7,0,0,0-2.53-2,.9.9,0,0,0-.46-.06.38.38,0,0,0-.31.3.63.63,0,0,0,.17.38,3.77,3.77,0,0,1,.62,1.35,6.8,6.8,0,0,1-3.24-1.11c-.27-.13-.66-.22-.8,0s.06.49.26.66a5.88,5.88,0,0,0,1.59,1l-2.13-.8c-.22-.08-.52-.13-.64.07s0,.36.13.5a4.63,4.63,0,0,0,2.38,1.6l-2.33-.62a.48.48,0,0,0-.29,0,.3.3,0,0,0-.12.35.87.87,0,0,0,.25.32,8.33,8.33,0,0,0,2.3,1.44l-1.1-.08c-.22,0-.51,0-.56.23s.15.36.33.46a6,6,0,0,0,3,.55,13.71,13.71,0,0,0,2.21-.33l21.75,9.45a3.59,3.59,0,0,0,2-6.89Z" transform="translate(-32.72)"/><path class="cls-4" d="M280.05,298.42l-1.92,6.22s17.35,7.59,18.49,7.64c.84,0,10.87-10.86,16.11-16.62a6.94,6.94,0,0,0,0-9.44c-1.31-1.35-1-3.63-3-2-5.17,4.24-15.52,18.38-15.52,18.38Z" transform="translate(-32.72)"/><polygon class="cls-5" points="274.38 301.79 272.64 291.68 271.71 304.66 274.38 301.79"/><path class="cls-31" d="M320.14,281.71l-1.61,1.44a3,3,0,0,1-4.42.41l-1.61-1.48-.48-9.25,6.45-.59Z" transform="translate(-32.72)"/><path class="cls-33" d="M312.27,277.68s3.61-.37,4.88-2.05c0,0-1.72,4-4.77,4.14Z" transform="translate(-32.72)"/><path class="cls-4" d="M329.51,299.47c-.31,5.64-.93,10.64-.93,10.64l-19.64,1.79s-3.44-18.77-3.58-20.22c-.18-2,2.76-6.42,5.83-8.75.28-.21.57-.4.84-.58l.47-.27s3.13,2.73,7.64-.7l.45.27.87.54c1.44.86,3.69,2.25,4.87,3.12C328.15,286.63,329.82,293.84,329.51,299.47Z" transform="translate(-32.72)"/><g class="cls-12"><rect class="cls-4" x="324.45" y="293.27" width="1" height="17.13" transform="translate(-63.34 36.75) rotate(-6.18)"/></g><g class="cls-12"><path class="cls-4" d="M321.46,282.19a8.17,8.17,0,0,1-5.1,2.92,5,5,0,0,1-.67,0,6.66,6.66,0,0,1-4.5-2.2c.28-.21.57-.4.84-.58a5.68,5.68,0,0,0,3.7,1.79c1.6,0,3.23-.79,4.86-2.49Z" transform="translate(-32.72)"/></g><polygon class="cls-11" points="331.54 306.11 325.82 316.91 332.51 327.14 349.45 326.25 342.99 335.76 319.87 336.83 313.83 326.16 258.23 328.73 255.34 328.86 250.31 340.06 227.19 341.12 219.87 332.26 221.39 332.2 236.82 331.57 242.55 320.77 235.84 310.55 218.91 311.43 225.37 301.92 248.5 300.86 254.53 311.53 309.65 308.97 313.03 308.81 318.04 297.63 341.18 296.56 348.49 305.43 347 305.49 331.54 306.11"/><path class="cls-34" d="M291,328.73l-2.89.13-5,11.2-23.12,1.06-7.32-8.86,1.52-.06c2.22,2,8.23,6.78,12.78,6.27,5.67-.66,19.92-5.56,21.38-15.32C289.25,316.63,290.4,322.78,291,328.73Z" transform="translate(-32.72)"/><path class="cls-34" d="M381.21,305.43l-1.49.06c-1-1-2.14-2.23-3.28-3.49-3.16-3.49-20.69-2.81-23.13-2.24s-7,13.13-9.05,14.64c-1.35,1-1.77-2.65-1.89-5.43l3.38-.16,5-11.18,23.14-1.07Z" transform="translate(-32.72)"/><path class="cls-34" d="M287.25,311.52h0a4.67,4.67,0,0,0,5.34,4.17l41.7-6.35Z" transform="translate(-32.72)"/><path class="cls-31" d="M334.35,315.2l-2.28-1c-1.22-.53-2.43-1.06-3.59-1.65l-7.57,14.82-3.55.17s1.71,3.49,5.43,3.06a4.85,4.85,0,0,0,4.39-3.54h0Z" transform="translate(-32.72)"/><path class="cls-4" d="M337.84,301c-2.66-4.05-8.15-12.07-12.31-15.95a64.75,64.75,0,0,0-6.61,7.05c.07.09.13.19.21.28l11.93,13.28-6.56,13.49,6.45,2.68c4.63-7.3,6.73-12.1,7.68-15A6.78,6.78,0,0,0,337.84,301Z" transform="translate(-32.72)"/><polygon class="cls-5" points="289.47 295.78 296.51 303.61 296.26 306.4 289.47 295.78"/><path class="cls-31" d="M320.93,267.83a1.17,1.17,0,0,0-.77-.17,18.88,18.88,0,0,0-.7-2.37,2.67,2.67,0,0,0-2-1.75c-2.2-.42-6.32-1.31-8.94,1a2.72,2.72,0,0,0-.89,2.12,43.13,43.13,0,0,0,.23,5.07c.09.9.21,1.78.36,2.56a5.77,5.77,0,0,0,1,2.75c1.77,1.7,7.85.27,10.17-3.55a6.46,6.46,0,0,0,.73-1.73C321.58,270.91,321.9,268.43,320.93,267.83Z" transform="translate(-32.72)"/><path class="cls-33" d="M311.38,269.2a1.68,1.68,0,0,1,.29,1.09,3.46,3.46,0,0,1-.26,1.11,3.73,3.73,0,0,0-.18.48.5.5,0,0,0,.06.39,1,1,0,0,0,.87.41,1,1,0,0,1-1.11-.23.81.81,0,0,1-.17-.64,4,4,0,0,1,.18-.55,5.28,5.28,0,0,0,.32-1A2.7,2.7,0,0,0,311.38,269.2Z" transform="translate(-32.72)"/><path class="cls-14" d="M312.63,268.43a.88.88,0,0,1,.48-.26,1.27,1.27,0,0,1,.55,0,1,1,0,0,1,.5.22,1.14,1.14,0,0,1,.34.39.11.11,0,0,1,0,.15.11.11,0,0,1-.12,0h0a2.32,2.32,0,0,0-.36-.22,1.23,1.23,0,0,0-.38-.08c-.26,0-.51.1-.8.11h0a.17.17,0,0,1-.17-.17A.25.25,0,0,1,312.63,268.43Z" transform="translate(-32.72)"/><path class="cls-14" d="M310.54,268.93c-.29,0-.55,0-.81,0a1.19,1.19,0,0,0-.35.15,1.75,1.75,0,0,0-.32.29h0a.11.11,0,0,1-.15,0,.09.09,0,0,1,0-.11,1.14,1.14,0,0,1,.72-.76,1.44,1.44,0,0,1,.54-.1.89.89,0,0,1,.51.17.18.18,0,0,1,0,.25.2.2,0,0,1-.11.06Z" transform="translate(-32.72)"/><path class="cls-33" d="M311.86,273.88a3.31,3.31,0,0,0,1.22-.31,1.55,1.55,0,0,0,.42-.39c.12-.17.2-.37.32-.58a1.33,1.33,0,0,1-.06.71,1.11,1.11,0,0,1-.49.58,1.35,1.35,0,0,1-.72.18A1.49,1.49,0,0,1,311.86,273.88Z" transform="translate(-32.72)"/><path class="cls-14" d="M313.62,270.43c0,.43-.13.79-.39.81s-.48-.3-.52-.72.13-.78.39-.81S313.58,270,313.62,270.43Z" transform="translate(-32.72)"/><path class="cls-14" d="M310.39,270.73c0,.42-.13.78-.38.8s-.49-.3-.53-.72.14-.78.39-.8S310.35,270.31,310.39,270.73Z" transform="translate(-32.72)"/><path class="cls-33" d="M320.84,269.24a.55.55,0,0,0-.45-.23.74.74,0,0,0-.47.16,3.15,3.15,0,0,0-.68.81.15.15,0,0,1-.21,0,.16.16,0,0,1-.07-.2,1,1,0,0,1,1-.5.52.52,0,0,1,.37.19.6.6,0,0,1,0,.74.89.89,0,0,1-.59.33,1,1,0,0,0,.45-.42.42.42,0,0,0-.05-.48.47.47,0,0,0-.47,0,.62.62,0,0,0-.41.3l-.28-.14a2.41,2.41,0,0,1,.83-.85.85.85,0,0,1,.6-.11A.54.54,0,0,1,320.84,269.24Z" transform="translate(-32.72)"/><path class="cls-14" d="M320.63,263.79c-1.48-2.44-6.61-2-6.61-2a.79.79,0,0,0-.34-.91,1.41,1.41,0,0,0-1-.15,1.44,1.44,0,0,0-.93.53,3.38,3.38,0,0,0-.2-1.14,1.59,1.59,0,0,0-.76-.85,1.49,1.49,0,0,0-1.17,0,2.58,2.58,0,0,0-.95.72,3.15,3.15,0,0,0-.78,2.28c-.23-.25-.46-.5-.7-.74a.47.47,0,0,0-.27-.19.46.46,0,0,0-.34.13,1.8,1.8,0,0,0-.59,1.3,3.35,3.35,0,0,0,.32,1.42,5.1,5.1,0,0,0,.6,1c-.71,2.17.87,5.33.87,5.33a5.72,5.72,0,0,1,.81-4,8.3,8.3,0,0,0,1.84.5c1.75.28,3.35-1.78,4.25-1.82a1,1,0,0,1,1.05.84s.2,2.83.69,3.37a5.91,5.91,0,0,0,1.88,1.35c.35.06-.08-3.46,1.87-3.12,2.36.42-.08,4-.08,4l-.24,1.08C324.32,269.82,320.63,263.79,320.63,263.79Z" transform="translate(-32.72)"/><path class="cls-35" d="M129.24,368.85c-1.48-.85-3-1.71-4.56-2.62-6.26,7.95-11.43,14.92-11.43,14.92l4.47,3.93L132,370.5C131.1,370,130.18,369.39,129.24,368.85Z" transform="translate(-32.72)"/><path class="cls-11" d="M112.18,382.14a1.84,1.84,0,0,1,.1-2.15,5.9,5.9,0,0,1,1.17-1,1.29,1.29,0,0,1,.69-.27,1.22,1.22,0,0,1,.8.41c1.43,1.33,2,3.46,3.67,4.46a3.32,3.32,0,0,1,1.65-1.51,1.31,1.31,0,0,1,.87-.1c.65.19.79,1,.86,1.72a12.07,12.07,0,0,0,3.19,6.9,9.14,9.14,0,0,1,1.16,1.32,2.18,2.18,0,0,1,.37,1.67,1.24,1.24,0,0,1-1.3.94Z" transform="translate(-32.72)"/><path class="cls-24" d="M148.47,325c0,.23,0,.47,0,.72s0,.68,0,1c-.08,9.29-.31,27.88-.73,28.91-.55,1.37-21.84,21.54-21.84,21.54l-.21-.22-5.21-5.35-.5-.51L137.17,350l-3.73-35.39,10.09,3.45,1,.35,1.63.56A8.82,8.82,0,0,1,148.47,325Z" transform="translate(-32.72)"/><g class="cls-12"><path class="cls-24" d="M148.46,325.72c0,.33,0,.68,0,1a4.29,4.29,0,0,1-2.19-1.13c-2.11-2-2.61-6-2.73-7.53l1,.35c.16,1.64.69,4.87,2.38,6.45A3,3,0,0,0,148.46,325.72Z" transform="translate(-32.72)"/></g><polygon class="cls-29" points="103.06 351.75 102.58 368.2 107.41 363.51 103.73 350.92 103.06 351.75"/><polygon class="cls-29" points="92.95 376.99 92.52 364.66 90.57 367.05 92.95 376.99"/><path class="cls-35" d="M129.24,368.85l-4-2.29c.62,12.61,1.86,25.36,1.86,25.36h7.16l.36-19.89C132.85,371,131.05,369.89,129.24,368.85Z" transform="translate(-32.72)"/><path class="cls-11" d="M127.29,395c-.68,0-1.38-1-1.39-1.64a6.11,6.11,0,0,1,.17-1.54,1.32,1.32,0,0,1,.32-.66,1.26,1.26,0,0,1,.87-.25c2,0,3.81,1.2,5.73.79a3.3,3.3,0,0,1,.18-2.23,1.32,1.32,0,0,1,.57-.66c.61-.3,1.28.22,1.8.67a12,12,0,0,0,7,2.9,10.18,10.18,0,0,1,1.75.18,2.14,2.14,0,0,1,1.4,1,1.22,1.22,0,0,1-.3,1.57Z" transform="translate(-32.72)"/><path class="cls-24" d="M142.25,317.66l-5.8,10.92-1.57,54.11h-9s-1.9-43.5-2.15-54.75S127,312.46,127,312.46l1.5.51,1,.32,2.38.82,1,.33Z" transform="translate(-32.72)"/><path class="cls-36" d="M132.8,314.44c-.36,1.86-1.2,4.78-3,6.05a3.33,3.33,0,0,1-1.95.63c-.12,0-.24,0-.35,0a40.07,40.07,0,0,0-.52,5.8c-.09,6.1.91,33.54,1.45,48.28.15,4.13.24,6.34.24,7.53h-1c0-1.35-.15-4.09-.27-7.5-.55-14.75-1.55-42.2-1.46-48.32a46.48,46.48,0,0,1,2.51-13.9l1,.32a47,47,0,0,0-1.77,6.82,2.26,2.26,0,0,0,1.54-.44c1.54-1.1,2.29-3.86,2.61-5.56Z" transform="translate(-32.72)"/><path class="cls-35" d="M176.71,320.1l.82-4.29-23.59-4.34a3.57,3.57,0,0,0-4.16,2.86h0c-.37,1.94,1.84,3.11,3.77,3.48Z" transform="translate(-32.72)"/><path class="cls-35" d="M176.88,315.86s7.08-1,10.62,3.18a.6.6,0,0,1-.29,1,24.14,24.14,0,0,1-10.92.09Z" transform="translate(-32.72)"/><path class="cls-37" d="M142.73,294.31l6.14-.86a4.77,4.77,0,0,1,5.36,3.8L157,311.41l11.67,2.77-1.64,5.92s-15.38,1.9-17.75-5.16S142.73,294.31,142.73,294.31Z" transform="translate(-32.72)"/><polygon class="cls-35" points="109.36 286.48 114.05 290.58 116.89 288.69 119.53 279.82 113.4 277.73 109.36 286.48"/><path class="cls-38" d="M150.86,284.48s-3.42-1.21-4.26-3.14c0,0,.72,4.32,3.66,5.14Z" transform="translate(-32.72)"/><path class="cls-11" d="M154.5,300.09c-.57,1.81-8.3,18.92-8.3,18.92L127,312.46l4.74-18.09a9.9,9.9,0,0,1,5.78-6.62c1-.4,1.89-.73,2.65-1l1.12-.37c.54-.16.87-.24.87-.24l4.72,3.76,2.72-1.22c.16.16.33.33.48.5s.46.51.68.78C153.69,293.61,155,298.49,154.5,300.09Z" transform="translate(-32.72)"/><g class="cls-12"><path class="cls-11" d="M150.77,290l-4.44,2.11-6.15-5.32,1.12-.37,5.2,4.51,3.59-1.71C150.33,289.45,150.55,289.71,150.77,290Z" transform="translate(-32.72)"/></g><path class="cls-35" d="M166.92,320.53l.91-4.27-23.51-4.79a3.58,3.58,0,0,0-4.21,2.78h0c-.41,1.94,1.78,3.16,3.7,3.56Z" transform="translate(-32.72)"/><path class="cls-35" d="M167.17,316.29s7.1-.84,10.56,3.39a.58.58,0,0,1-.31.95,23.79,23.79,0,0,1-10.92-.11Z" transform="translate(-32.72)"/><path class="cls-11" d="M133.44,294.11l10.65-1.3,3.31,18.66,11.61,3-1.75,5.89s-15.41,1.61-17.65-5.49S133.44,294.11,133.44,294.11Z" transform="translate(-32.72)"/><path class="cls-39" d="M134.42,297.49l4.77,16S129.9,307.65,134.42,297.49Z" transform="translate(-32.72)"/><path class="cls-35" d="M157.58,272.61c-2-2.89-6.21-3-8.45-3.1a2.64,2.64,0,0,0-2.33,1.23,18,18,0,0,0-1.25,2.14,1.18,1.18,0,0,0-.79,0c-1.08.36-1.35,2.84-.19,4a6.38,6.38,0,0,0,.3,1.85c1.35,4.26,6.93,7.08,9.06,5.85a5.88,5.88,0,0,0,1.64-2.44c.33-.72.65-1.54,1-2.4a46.12,46.12,0,0,0,1.41-4.87A2.77,2.77,0,0,0,157.58,272.61Z" transform="translate(-32.72)"/><path class="cls-38" d="M153.72,276.44a1.72,1.72,0,0,0-.53,1,3.3,3.3,0,0,0,0,1.13,2.68,2.68,0,0,1,.07.51.49.49,0,0,1-.15.37,1,1,0,0,1-.94.2,1,1,0,0,0,1.13,0,.81.81,0,0,0,.32-.58,4.48,4.48,0,0,0,0-.58,5.3,5.3,0,0,1-.07-1A2.58,2.58,0,0,1,153.72,276.44Z" transform="translate(-32.72)"/><path class="cls-14" d="M152.69,275.4a1,1,0,0,0-.4-.37,1.65,1.65,0,0,0-.53-.13,1,1,0,0,0-.55.1,1.08,1.08,0,0,0-.42.3.11.11,0,0,0,0,.15.09.09,0,0,0,.11,0h0a1.62,1.62,0,0,1,.41-.13.86.86,0,0,1,.39,0c.25,0,.46.22.74.29h0a.17.17,0,0,0,.21-.12A.19.19,0,0,0,152.69,275.4Z" transform="translate(-32.72)"/><path class="cls-14" d="M154.61,276.37c.27.12.54.1.77.23a1.14,1.14,0,0,1,.31.23,1.83,1.83,0,0,1,.25.35h0a.1.1,0,0,0,.14,0,.11.11,0,0,0,.06-.1,1.21,1.21,0,0,0-.16-.51,1.08,1.08,0,0,0-.37-.4,1.32,1.32,0,0,0-.5-.22.84.84,0,0,0-.54,0,.18.18,0,0,0-.09.23.2.2,0,0,0,.09.09Z" transform="translate(-32.72)"/><path class="cls-38" d="M152.15,280.87a2.94,2.94,0,0,1-1.1-.58,1.23,1.23,0,0,1-.32-.48,4.49,4.49,0,0,1-.18-.64,1.32,1.32,0,0,0-.11.71,1.2,1.2,0,0,0,.34.68,1.4,1.4,0,0,0,.66.34A1.31,1.31,0,0,0,152.15,280.87Z" transform="translate(-32.72)"/><path class="cls-14" d="M151.26,277.11c-.14.4-.06.79.18.88s.54-.18.68-.58,0-.79-.18-.87S151.39,276.72,151.26,277.11Z" transform="translate(-32.72)"/><path class="cls-14" d="M154.33,278.16c-.14.4-.06.79.18.87s.54-.17.68-.57.05-.79-.19-.88S154.46,277.76,154.33,278.16Z" transform="translate(-32.72)"/><path class="cls-38" d="M144.52,274.25a.57.57,0,0,1,.5-.12.87.87,0,0,1,.41.27,3.13,3.13,0,0,1,.47,1,.16.16,0,0,0,.3-.08.88.88,0,0,0-.47-.6,1.09,1.09,0,0,0-.36-.12.5.5,0,0,0-.41.1.6.6,0,0,0-.18.72,1,1,0,0,0,.5.46,1,1,0,0,1-.34-.51.44.44,0,0,1,.17-.46.48.48,0,0,1,.46.08.61.61,0,0,1,.32.39l.31-.08a2.43,2.43,0,0,0-.6-1A.88.88,0,0,0,145,274,.56.56,0,0,0,144.52,274.25Z" transform="translate(-32.72)"/><path class="cls-14" d="M157.7,275.83c.11-2.61-1.92-1.14-2.94-1.07s-.7-1.17-1.67-1.87a1.33,1.33,0,0,0-1.79.27,12.36,12.36,0,0,1-3,2.25.63.63,0,0,1-.84-.31,5.41,5.41,0,0,0-1.34-1.92,1.33,1.33,0,0,0-2,.46,3.07,3.07,0,0,0,.42,3.25,12.64,12.64,0,0,0,.47,2.28,3.82,3.82,0,0,1-1.9-2.31,7.07,7.07,0,0,1,.16-3.92,9.34,9.34,0,0,1,1.31-2.76,3.54,3.54,0,0,1,1.16-1.15,1.76,1.76,0,0,1,1.76,0,16.91,16.91,0,0,1,6.92-.81,7.84,7.84,0,0,1,2.67.63,3.52,3.52,0,0,1,2.17,4,8.46,8.46,0,0,1-.66,2.07,10.76,10.76,0,0,1-1.33,2.3Z" transform="translate(-32.72)"/><rect class="cls-40" x="179.33" y="357.47" width="71.94" height="3.41" transform="translate(541.75 143.88) rotate(90)"/><rect class="cls-41" x="212.88" y="329.29" width="4.84" height="3.41" transform="translate(513.57 115.7) rotate(90)"/><rect class="cls-40" x="145.41" y="357.47" width="71.94" height="3.41" transform="translate(507.83 177.79) rotate(90)"/><rect class="cls-41" x="178.96" y="329.29" width="4.84" height="3.41" transform="translate(479.65 149.62) rotate(90)"/><rect class="cls-4" x="127.23" y="357.47" width="71.94" height="3.41" transform="translate(489.65 195.97) rotate(90)"/><rect class="cls-5" x="160.78" y="329.29" width="4.84" height="3.41" transform="translate(461.48 167.8) rotate(90)"/><rect class="cls-4" x="161.15" y="357.47" width="71.94" height="3.41" transform="translate(523.57 162.05) rotate(90)"/><rect class="cls-5" x="194.7" y="329.29" width="4.84" height="3.41" transform="translate(495.4 133.88) rotate(90)"/><rect class="cls-4" x="128.78" y="323.2" width="55.5" height="5.38"/><rect class="cls-42" x="128.78" y="323.2" width="55.5" height="1.55"/><rect class="cls-43" x="135.89" y="320.95" width="25.54" height="2.25"/><rect class="cls-11" x="149.93" y="320.95" width="22.35" height="2.25"/><path class="cls-11" d="M205,321H182.62l1.88-14.16a1,1,0,0,1,1-.85h20.38a1,1,0,0,1,1,1.11Z" transform="translate(-32.72)"/><rect class="cls-19" y="394.75" width="426.28" height="3"/></g></g></svg>